# xmcd
#
# Track frame offsets:
#   150
#   12095
#   23282
#   36827
#   48060
#   57515
#   70355
#   80357
#   90935
#   98947
#   110770
#   122605
#   142215
#   152935
#   162822
#   176967
#   188262
#
# Disc length: 2622 seconds
#
# Revision: 0
# Processed by: cddbd v1.4PL0 Copyright (c) Steve Scherf et al.
# Submitted via: CD-Datenbank 4.*
#
DISCID=d50a3c11
DTITLE=Verschiedene -  Country and Western disc 1
DYEAR=1999
DGENRE=Country
TTITLE0=K. Rogers - Me and Bobby McGee
TTITLE1=B. Jo Spears - I'm so lonesone I could cry
TTITLE2=T. Wynette - Til I can make it on my own
TTITLE3=W. Jennings - Sally was a good old girl
TTITLE4=D. Parton - Girl left alone
TTITLE5=B. Willie - Hobo heaven
TTITLE6=W. Nelson - Broken promises
TTITLE7=C. Twitty - It's only make believe
TTITLE8=K. Wells - After dark
TTITLE9=W. Guthrie - Hard, ain't it hard
TTITLE10=W. Jennings - Crying
TTITLE11=K. Rogers - Lay it down
TTITLE12=T. Wynette - Another chance
TTITLE13=D. Parton - Release me
TTITLE14=W. Nelson - Face of a fighter
TTITLE15=C. Twitty - Broken heart
TTITLE16=W. Jennings - Abilene
EXTD=
EXTT0=
EXTT1=
EXTT2=
EXTT3=
EXTT4=
EXTT5=
EXTT6=
EXTT7=
EXTT8=
EXTT9=
EXTT10=
EXTT11=
EXTT12=
EXTT13=
EXTT14=
EXTT15=
EXTT16=
PLAYORDER=
